<svg width="34" height="34" viewBox="0 0 34 34" fill="none" xmlns="http://www.w3.org/2000/svg">
<g id="Dismiss">
<path id="Shape" d="M8.68826 8.95835L8.8112 8.8112C9.18003 8.44237 9.75255 8.40139 10.1666 8.68826L10.3138 8.8112L17 15.4976L23.6862 8.8112C24.1011 8.39627 24.7739 8.39627 25.1888 8.8112C25.6037 9.22613 25.6037 9.89887 25.1888 10.3138L18.5024 17L25.1888 23.6862C25.5576 24.055 25.5986 24.6276 25.3117 25.0416L25.1888 25.1888C24.82 25.5576 24.2474 25.5986 23.8334 25.3117L23.6862 25.1888L17 18.5024L10.3138 25.1888C9.89887 25.6037 9.22613 25.6037 8.8112 25.1888C8.39627 24.7739 8.39627 24.1011 8.8112 23.6862L15.4976 17L8.8112 10.3138C8.44237 9.94497 8.40139 9.37245 8.68826 8.95835L8.8112 8.8112L8.68826 8.95835Z" fill="#616161"/>
</g>
</svg>
